<svg width="1024" height="1024" viewBox="0 0 1024 1024" fill="none" xmlns="http://www.w3.org/2000/svg">
  <defs>
    <linearGradient id="bg" x1="182" y1="128" x2="856" y2="900" gradientUnits="userSpaceOnUse">
      <stop stop-color="#121D31"/>
      <stop offset="1" stop-color="#07101B"/>
    </linearGradient>
    <radialGradient id="glow" cx="0" cy="0" r="1" gradientUnits="userSpaceOnUse" gradientTransform="translate(762 190) rotate(138.814) scale(536.331)">
      <stop stop-color="#6AE5FF" stop-opacity="0.26"/>
      <stop offset="1" stop-color="#6AE5FF" stop-opacity="0"/>
    </radialGradient>
    <linearGradient id="stroke" x1="214" y1="208" x2="808" y2="820" gradientUnits="userSpaceOnUse">
      <stop stop-color="#7EE8FF"/>
      <stop offset="0.5" stop-color="#79A7FF"/>
      <stop offset="1" stop-color="#45F1C9"/>
    </linearGradient>
    <linearGradient id="deploy" x1="560" y1="708" x2="760" y2="530" gradientUnits="userSpaceOnUse">
      <stop stop-color="#46F2CB"/>
      <stop offset="1" stop-color="#8AEAFF"/>
    </linearGradient>
  </defs>

  <rect x="72" y="72" width="880" height="880" rx="220" fill="url(#bg)"/>
  <rect x="72" y="72" width="880" height="880" rx="220" fill="url(#glow)"/>
  <rect x="84" y="84" width="856" height="856" rx="208" stroke="url(#stroke)" stroke-opacity="0.24" stroke-width="4"/>

  <g opacity="0.18">
    <path d="M244 270H780" stroke="#8FC8FF" stroke-width="2"/>
    <path d="M224 382H800" stroke="#8FC8FF" stroke-width="2"/>
    <path d="M204 494H820" stroke="#8FC8FF" stroke-width="2"/>
    <path d="M224 606H800" stroke="#8FC8FF" stroke-width="2"/>
    <path d="M244 718H780" stroke="#8FC8FF" stroke-width="2"/>
    <path d="M334 188V836" stroke="#8FC8FF" stroke-width="2"/>
    <path d="M512 156V868" stroke="#8FC8FF" stroke-width="2"/>
    <path d="M690 188V836" stroke="#8FC8FF" stroke-width="2"/>
  </g>

  <path d="M512 190L720 310V550L512 670L304 550V310L512 190Z" stroke="url(#stroke)" stroke-width="22" stroke-linejoin="round"/>
  <path d="M512 258L660 344V516L512 602L364 516V344L512 258Z" stroke="#0D2033" stroke-width="16" stroke-linejoin="round"/>

  <rect x="390" y="520" width="56" height="120" rx="20" fill="url(#stroke)"/>
  <rect x="488" y="462" width="56" height="178" rx="20" fill="url(#stroke)"/>
  <rect x="586" y="404" width="56" height="236" rx="20" fill="url(#stroke)"/>

  <path d="M356 618L450 526L528 560L662 408" stroke="url(#stroke)" stroke-width="28" stroke-linecap="round" stroke-linejoin="round"/>
  <path d="M612 408H662V458" stroke="url(#stroke)" stroke-width="28" stroke-linecap="round" stroke-linejoin="round"/>

  <g>
    <circle cx="724" cy="728" r="128" fill="#0A1524" stroke="url(#deploy)" stroke-width="18"/>
    <path d="M666 736H758" stroke="url(#deploy)" stroke-width="30" stroke-linecap="round"/>
    <path d="M724 678L782 736L724 794" stroke="url(#deploy)" stroke-width="30" stroke-linecap="round" stroke-linejoin="round"/>
    <path d="M628 736C628 683 671 640 724 640" stroke="#5ABEFF" stroke-width="18" stroke-linecap="round"/>
  </g>
</svg>
