<svg width="1200" height="820" viewBox="0 0 1200 820" fill="none" xmlns="http://www.w3.org/2000/svg">
  <rect width="1200" height="820" rx="32" fill="#F3EEE6"/>
  <rect x="28" y="28" width="1144" height="764" rx="30" fill="#FFFDF8" stroke="#DDD1BF"/>

  <rect x="64" y="64" width="196" height="692" rx="26" fill="#1F2C2D"/>
  <text x="92" y="114" fill="#F7F3EA" font-family="Arial, sans-serif" font-size="24" font-weight="700">Home Ops Finance</text>
  <text x="92" y="148" fill="#B8C4C0" font-family="Arial, sans-serif" font-size="17">Lokale Demoansicht</text>

  <rect x="84" y="190" width="156" height="46" rx="14" fill="#DA8A43"/>
  <text x="104" y="219" fill="#FFF8F0" font-family="Arial, sans-serif" font-size="18" font-weight="700">Monate</text>
  <text x="104" y="285" fill="#DAE3E0" font-family="Arial, sans-serif" font-size="18">Übersicht</text>
  <text x="104" y="327" fill="#DAE3E0" font-family="Arial, sans-serif" font-size="18">Import Review</text>
  <text x="104" y="369" fill="#DAE3E0" font-family="Arial, sans-serif" font-size="18">Baseline</text>
  <text x="104" y="411" fill="#DAE3E0" font-family="Arial, sans-serif" font-size="18">Auswertung</text>

  <text x="316" y="104" fill="#7B6046" font-family="Arial, sans-serif" font-size="18" font-weight="700">Beispielvorschau</text>
  <text x="316" y="154" fill="#1A2527" font-family="Arial, sans-serif" font-size="32" font-weight="700">Monatsübersicht mit Beispielwerten</text>
  <text x="316" y="192" fill="#6A6761" font-family="Arial, sans-serif" font-size="18">Zeigt Cashflow, Rücklagen und Warnhinweise für einen typischen Review-Workflow.</text>

  <rect x="316" y="236" width="262" height="132" rx="24" fill="#F6E5D2"/>
  <text x="342" y="278" fill="#8E6033" font-family="Arial, sans-serif" font-size="17" font-weight="700">Freier Betrag</text>
  <text x="342" y="326" fill="#261A11" font-family="Arial, sans-serif" font-size="36" font-weight="700">482 EUR</text>
  <text x="342" y="352" fill="#7A6148" font-family="Arial, sans-serif" font-size="17">nach Fixkosten und Rücklagen</text>

  <rect x="596" y="236" width="262" height="132" rx="24" fill="#DDEEE4"/>
  <text x="622" y="278" fill="#2E6A52" font-family="Arial, sans-serif" font-size="17" font-weight="700">Gesamtvermögen</text>
  <text x="622" y="326" fill="#17372B" font-family="Arial, sans-serif" font-size="34" font-weight="700">24.850 EUR</text>
  <text x="622" y="352" fill="#4C6F61" font-family="Arial, sans-serif" font-size="17">Sicherheit plus Investment</text>

  <rect x="876" y="236" width="240" height="132" rx="24" fill="#E3E0F6"/>
  <text x="902" y="278" fill="#5A4C95" font-family="Arial, sans-serif" font-size="17" font-weight="700">Sparquote</text>
  <text x="902" y="326" fill="#241D45" font-family="Arial, sans-serif" font-size="36" font-weight="700">27 %</text>
  <text x="902" y="352" fill="#675E8C" font-family="Arial, sans-serif" font-size="17">basierend auf Demo-Import</text>

  <rect x="316" y="398" width="800" height="320" rx="28" fill="#FCFAF6" stroke="#DDD2C2"/>
  <text x="350" y="444" fill="#1A2527" font-family="Arial, sans-serif" font-size="24" font-weight="700">Monatsliste</text>
  <text x="350" y="476" fill="#68645D" font-family="Arial, sans-serif" font-size="18">Warnungen und Ausreißer werden direkt in der Tabelle sichtbar.</text>

  <rect x="350" y="520" width="732" height="52" rx="18" fill="#F1EBE1"/>
  <text x="376" y="552" fill="#3A342E" font-family="Arial, sans-serif" font-size="17" font-weight="700">2026-03</text>
  <text x="520" y="552" fill="#3A342E" font-family="Arial, sans-serif" font-size="17">Einnahmen 3.420 EUR</text>
  <text x="734" y="552" fill="#3A342E" font-family="Arial, sans-serif" font-size="17">Ausgaben 2.938 EUR</text>
  <rect x="998" y="531" width="64" height="30" rx="15" fill="#DCEFE5"/>
  <text x="1018" y="551" fill="#2D6A52" font-family="Arial, sans-serif" font-size="15" font-weight="700">OK</text>

  <rect x="350" y="588" width="732" height="52" rx="18" fill="#FFF1E0"/>
  <text x="376" y="620" fill="#3A342E" font-family="Arial, sans-serif" font-size="17" font-weight="700">2026-04</text>
  <text x="520" y="620" fill="#3A342E" font-family="Arial, sans-serif" font-size="17">Einnahmen 3.180 EUR</text>
  <text x="734" y="620" fill="#3A342E" font-family="Arial, sans-serif" font-size="17">Ausgaben 3.146 EUR</text>
  <rect x="974" y="599" width="88" height="30" rx="15" fill="#E7B06E"/>
  <text x="995" y="619" fill="#FFF8F1" font-family="Arial, sans-serif" font-size="15" font-weight="700">Prüfen</text>

  <rect x="350" y="656" width="732" height="52" rx="18" fill="#F7E3E0"/>
  <text x="376" y="688" fill="#3A342E" font-family="Arial, sans-serif" font-size="17" font-weight="700">2026-05</text>
  <text x="520" y="688" fill="#3A342E" font-family="Arial, sans-serif" font-size="17">Einnahmen 2.980 EUR</text>
  <text x="734" y="688" fill="#3A342E" font-family="Arial, sans-serif" font-size="17">Ausgaben 3.410 EUR</text>
  <rect x="986" y="667" width="76" height="30" rx="15" fill="#C95D53"/>
  <text x="1007" y="687" fill="#FFF4F2" font-family="Arial, sans-serif" font-size="15" font-weight="700">Defizit</text>
</svg>
